<svg width="14" height="14" viewBox="0 0 14 14" fill="none" xmlns="http://www.w3.org/2000/svg">
<path d="M6.99953 0C6.7281 0 6.5081 0.22 6.5081 0.491429V9.95429L4.82809 8.27429C4.63666 8.08286 4.32524 8.08286 4.13381 8.27429C3.94238 8.46571 3.94238 8.77714 4.13381 8.96857L6.65095 11.4857C6.74524 11.58 6.87096 11.6286 6.99667 11.6286C7.12238 11.6286 7.2481 11.58 7.34239 11.4857L9.85953 8.96857C10.051 8.77714 10.051 8.46571 9.85953 8.27429C9.6681 8.08286 9.35667 8.08286 9.16525 8.27429L7.48524 9.95429V0.488571C7.4881 0.217143 7.27096 0 6.99953 0Z" fill="white"/>
<path d="M13.2026 13.5114V10.6628C13.2026 10.3914 12.9826 10.1714 12.7112 10.1714C12.4397 10.1714 12.2197 10.3914 12.2197 10.6628V13.0228H1.77688V10.6628C1.77688 10.3914 1.55688 10.1714 1.2883 10.1714C1.01973 10.1714 0.796875 10.3914 0.796875 10.6628V13.5114C0.796875 13.7828 1.01688 14 1.2883 14H12.7112C12.9826 14 13.2026 13.7828 13.2026 13.5114Z" fill="white"/>
</svg>
